<svg xmlns:xlink="http://www.w3.org/1999/xlink" version="1.1" xmlns="http://www.w3.org/2000/svg" viewBox="29.491525423728813 69.08800000000001 478.98305084745766 330.2" style="max-height: 500px" width="478.98305084745766" height="330.2"><svg style="overflow: hidden; top: -100%; left: -100%; position: absolute; opacity: 0" height="0" width="2" id="SvgjsSvg1002"><polyline points="0,0" id="SvgjsPolyline1003"/><path d="M0 0" id="SvgjsPath1004"/></svg><defs id="SvgjsDefs30366"/><defs id="SvgjsDefs30367"><style>
			.lo-name path, .lo-name {
				fill: #82dbf7;
			}
			.lo-tagline path, .lo-tagline {
				fill: #82dbf7;
			}
			.lo-icon path, .lo-icon {
				fill: #82dbf7;
			}
			.lo-shape path, .lo-shape {
				fill: #343a40;
			}
		</style></defs><g class="lo-icon" fill="#82dbf7" id="SvgjsG30368">
	<path fill-rule="evenodd" stroke="none" d="M 92.313 13.250 C 74.014 28.594, 21.085 76.444, 19.945 78.674 C 18.004 82.469, 17.231 179.728, 19.105 184.253 C 21.559 190.178, 19.051 190, 100 190 C 180.441 190, 178.244 190.149, 180.805 184.528 C 181.629 182.720, 182 174.197, 182 157.075 C 182 135.640, 181.783 132.065, 180.416 130.930 C 179.268 129.977, 178.375 129.904, 177.166 130.666 C 175.705 131.586, 175.438 134.842, 175 157.108 L 174.500 182.500 100 182.500 L 25.500 182.500 25.204 133.500 C 24.939 89.563, 25.078 84.190, 26.552 81.500 C 28.947 77.131, 97.419 17, 100 17 C 102.050 17, 170.154 76.182, 173.072 80.500 C 173.815 81.600, 174.666 84.703, 174.962 87.397 C 175.295 90.424, 176.136 92.692, 177.166 93.339 C 179.760 94.966, 182 92.445, 182 87.898 C 182 79.112, 180.929 77.901, 145.173 46.251 C 126.687 29.888, 109.818 15.038, 107.687 13.250 C 102.374 8.796, 97.626 8.796, 92.313 13.250" transform="translate(191.25, 92.25) scale(0.75,0.75)"/>
</g><path class="lo-tagline" transform="matrix(1,0,0,1,144.18,361.15999999999997)" fill="#82dbf7" d="M4.27 0L9.68 0L9.68-22.13L19.49-8.58L20.28-8.58L30.01-22.26L30.01 0L35.38 0L35.38-30.80L30.27-30.80L20.24-16.41L9.72-30.80L4.27-30.80ZM52.14-19.80C45.01-19.80 42.28-16.59 42.28-12.76C42.28-9.50 44.40-7.66 46.11-7.04L40.83 0L46.64 0L50.73-5.94L53.55-5.94L53.55 0L58.61 0L58.61-19.80ZM47.70-12.41C47.70-13.90 48.84-15.40 51.30-15.40L53.55-15.40L53.55-9.68L50.91-9.68C49.32-9.68 47.70-10.78 47.70-12.41ZM64.24 0L69.30 0L69.30-15.05L77.53-15.05L77.53-19.80L64.24-19.80ZM99.44-19.80L93.06-19.80L85.93-9.99L93.76 0L100.36 0L91.83-10.38ZM80.70 0L85.76 0L85.76-19.80L80.70-19.80ZM108.42 0L117.66-12.54L117.66 0L122.72 0L122.72-19.80L117.66-19.80L108.42-7.26L108.42-19.80L103.36-19.80L103.36 0ZM143.88-5.54C142.74-4.62 140.71-3.74 138.29-3.74C135.17-3.74 132.79-5.37 132.35-8.36L146.65-8.36C146.87-9.11 146.96-9.86 146.96-11.09C146.96-16.63 142.69-20.28 137.59-20.28C131.08-20.28 127.12-15.66 127.12-9.90C127.12-3.65 131.38 0.48 137.76 0.48C140.54 0.48 143.35-0.31 145.33-1.98ZM137.37-16.06C140.27-16.06 141.94-14.17 141.90-11.75L132.18-11.75C132.70-14.34 134.33-16.06 137.37-16.06ZM159.15-9.90C159.15-3.96 163.37 0.48 169.93 0.48C176.48 0.48 180.71-3.96 180.71-9.90C180.71-15.84 176.48-20.28 169.93-20.28C163.37-20.28 159.15-15.84 159.15-9.90ZM164.56-9.90C164.56-13.33 166.94-15.53 169.93-15.53C173.01-15.53 175.34-13.24 175.34-9.90C175.34-6.47 173.05-4.22 169.93-4.22C166.85-4.22 164.56-6.60 164.56-9.90ZM203.85-19.80L197.47-19.80L190.34-9.99L198.18 0L204.78 0L196.24-10.38ZM185.11 0L190.17 0L190.17-19.80L185.11-19.80ZM221.50 0L226.56 0L226.56-19.80L221.50-19.80L221.50-12.32L212.83-12.32L212.83-19.80L207.77-19.80L207.77 0L212.83 0L212.83-7.57L221.50-7.57ZM233.73-14.70C235.18-15.36 236.63-16.06 238.92-16.06C241.87-16.06 242.75-14.26 242.62-10.96C241.65-11.66 239.89-12.23 238.13-12.23C234.12-12.23 230.91-10.16 230.91-5.81C230.91-1.98 233.51 0.26 237.12 0.26C239.80 0.26 241.91-0.79 242.97-2.29L242.97 0L247.37 0L247.37-12.06C247.37-17.29 245.30-20.28 239.45-20.28C236.85-20.28 234.17-19.40 232.45-18.39ZM238.79-4.00C237.20-4.00 235.97-4.84 235.97-6.34C235.97-8.01 237.47-8.80 239.14-8.80C240.59-8.80 241.74-8.49 242.62-7.83L242.62-5.81C242-4.93 240.90-4.00 238.79-4.00Z" id="SvgjsPath30369"/><path class="lo-name" transform="matrix(1,0,0,1,65.625,296.195)" fill="#82dbf7" d="M31.16-26.08L31.16-29.69L11.38-29.69L1.26-29.48L1.26-25.87L4.07-24.95L4.07-4.58L1.26-3.61L1.26 0L14.20 0L14.20-3.61L11.38-4.62L11.38-24.49L21.04-24.49L21.04-4.62L18.23-3.61L18.23 0L31.16 0L31.16-3.61L28.35-4.58L28.35-24.99ZM62.50-26.08L62.50-29.69L46.54-29.69L38.35-29.48L38.35-25.87L41.12-24.91C40.87-16.59 40.53-6.47 35.24-6.47C34.78-6.47 34.27-6.55 33.68-6.72L32.59-0.04C34.19 0.42 35.62 0.67 36.88 0.67C45.65 0.67 45.91-11.38 46.75-24.49L52.37-24.49L52.37-4.62L49.10-3.61L49.10 0L62.50 0L62.50-3.61L59.68-4.58L59.68-24.99ZM71.82-31.88C73.71-31.88 75.26-33.22 75.26-35.45C75.26-37.72 73.96-39.06 71.82-39.06C69.89-39.06 68.42-37.72 68.46-35.45C68.46-33.22 69.68-31.88 71.82-31.88ZM81.52-31.88C83.41-31.88 84.92-33.22 84.92-35.45C84.92-37.72 83.66-39.06 81.52-39.06C79.59-39.06 78.08-37.72 78.12-35.45C78.16-33.22 79.34-31.88 81.52-31.88ZM82.99-8.36L82.32-5.21L75.14-5.21L75.14-12.56L83.41-12.56L83.41-17.60L75.14-17.60L75.14-24.49L81.82-24.49L82.49-21.67L86.81-21.67L86.81-29.69L74.97-29.69L65.02-29.48L65.02-25.87L67.83-24.95L67.83-4.58L65.02-3.61L65.02 0L87.23 0L87.32-8.36ZM120.67-26.08L120.67-29.69L107.77-29.48L107.77-25.87L110.54-24.95L110.54-17.77L100.42-17.77L100.42-24.99L103.24-26.08L103.24-29.69L90.30-29.48L90.30-25.87L93.11-24.95L93.11-4.58L90.30-3.61L90.30 0L103.24 0L103.24-3.61L100.42-4.62L100.42-12.56L110.54-12.56L110.54-4.58L107.77-3.61L107.77 0L120.67 0L120.67-3.61L117.89-4.58L117.89-24.99ZM136.54 0.59C145.49 0.59 151.12-5.50 151.12-15.46C151.12-24.95 146.08-30.28 137.51-30.28C128.86-30.28 123.27-24.91 123.27-14.45C123.27-4.70 128.18 0.59 136.54 0.59ZM137.05-5.00C133.14-5.00 131.12-7.60 131.12-14.70C131.12-22.55 133.48-24.70 137.17-24.70C141.12-24.70 143.26-22.34 143.26-15.16C143.26-7.27 140.74-5.00 137.05-5.00ZM179.55-26.08L179.55-29.69L166.82-29.48L166.82-25.87L169.43-24.95L169.43-16.76C167.79-16.30 166.36-16.00 165.14-16.00C162.71-16.00 161.36-17.18 161.36-21.08L161.36-24.99L163.97-26.08L163.97-29.69L151.24-29.48L151.24-25.87L154.06-24.99L154.06-19.19C154.06-13.27 157.88-10.67 162.96-10.67C164.93-10.67 167.16-11.09 169.43-11.84L169.43-4.66L165.77-3.61L165.77 0L179.55 0L179.55-3.61L176.74-4.58L176.74-24.99ZM212.44-26.08L212.44-29.69L199.54-29.48L199.54-25.87L202.31-24.95L202.31-17.77L192.19-17.77L192.19-24.99L195.01-26.08L195.01-29.69L182.07-29.48L182.07-25.87L184.88-24.95L184.88-4.58L182.07-3.61L182.07 0L195.01 0L195.01-3.61L192.19-4.62L192.19-12.56L202.31-12.56L202.31-4.58L199.54-3.61L199.54 0L212.44 0L212.44-3.61L209.66-4.58L209.66-24.99ZM228.48-18.48L225.08-18.48L225.08-24.99L227.89-26.08L227.89-29.69L214.96-29.48L214.96-25.87L217.77-24.95L217.77-4.58L214.96-3.61L214.96 0L226.67 0C235.20 0 238.90-4.07 238.90-9.70C238.90-15.25 235.66-18.48 228.48-18.48ZM252.63-26.08L252.63-29.69L239.69-29.48L239.69-25.87L242.51-24.91L242.51-4.58L239.69-3.61L239.69 0L252.63 0L252.63-3.61L249.82-4.58L249.82-24.95ZM226.67-5.21L225.08-5.21L225.08-13.61L227.43-13.61C230.08-13.61 231.46-12.43 231.46-9.49C231.46-6.55 229.82-5.21 226.67-5.21ZM273.13-8.36L272.45-5.21L265.27-5.21L265.27-12.56L273.55-12.56L273.55-17.60L265.27-17.60L265.27-24.49L271.95-24.49L272.62-21.67L276.95-21.67L276.95-29.69L265.10-29.69L255.15-29.48L255.15-25.87L257.96-24.95L257.96-4.58L255.15-3.61L255.15 0L277.37 0L277.45-8.36ZM300.93 0.59C309.88 0.59 315.50-5.50 315.50-15.46C315.50-24.95 310.46-30.28 301.90-30.28C293.24-30.28 287.66-24.91 287.66-14.45C287.66-4.70 292.57 0.59 300.93 0.59ZM301.43-5.00C297.53-5.00 295.51-7.60 295.51-14.70C295.51-22.55 297.86-24.70 301.56-24.70C305.51-24.70 307.65-22.34 307.65-15.16C307.65-7.27 305.13-5.00 301.43-5.00ZM344.44-4.41L336.92-15.50L342.85-25.12L345.49-26.08L345.49-29.69L333.56-29.48L333.56-25.87L335.87-25.24L331.55-17.77L328.19-17.77L328.19-25.07L330.83-26.17L330.83-29.69L318.07-29.48L318.07-25.87L320.88-24.99L320.88-4.58L318.07-3.61L318.07 0L330.83 0L330.83-3.61L328.19-4.66L328.19-12.56L331.17-12.56L336.17-4.54L334.03-3.61L334.03 0L346.67 0L346.67-3.61ZM377.92-26.08L377.92-29.69L365.02-29.48L365.02-25.87L367.79-24.95L367.79-17.77L357.67-17.77L357.67-24.99L360.49-26.08L360.49-29.69L347.55-29.48L347.55-25.87L350.36-24.95L350.36-4.58L347.55-3.61L347.55 0L360.49 0L360.49-3.61L357.67-4.62L357.67-12.56L367.79-12.56L367.79-4.58L365.02-3.61L365.02 0L377.92 0L377.92-3.61L375.14-4.58L375.14-24.99ZM406.52-4.37L397.61-29.82L390.10-29.61L380.69-4.41L378.63-3.61L378.63 0L389.97 0L389.97-3.61L387.37-4.54L388.42-7.73L397.32-7.73L398.29-4.49L395.89-3.61L395.89 0L408.49 0L408.49-3.61ZM393.29-22.93L395.98-12.77L389.97-12.77Z" id="SvgjsPath30370"/></svg>